<svg id="Layer_1" data-name="Layer 1" xmlns="http://www.w3.org/2000/svg" viewBox="0 0 602.66 121.88"><defs><style>.cls-1{fill:#f9f9f9;}.cls-2{fill:#fff;}</style></defs><title>musaed_text</title><path class="cls-1" d="M18.34,138.32V55.58q0-15.39,9.33-25.14t24.22-9.76q17.65,0,27.16,16.23,5.81-8.74,12.44-12.49t16.4-3.74q15.47,0,23.71,9.76t8.24,28.08v79.8H105.7V63.65q0-5.55-.88-7.36c-.59-1.2-1.78-1.81-3.57-1.81q-5.06,0-5,8.58v75.26H62.06V63.65c0-3.64-.3-6.08-.92-7.32s-1.82-1.85-3.62-1.85q-5,0-5,9.17v74.67Z" transform="translate(-18.34 -19.25)"/><path class="cls-1" d="M239.76,23.5V97.91q0,19.68-11.73,31.45t-31.24,11.77q-19.42,0-29.73-11.43t-10.3-32.88V23.5H190.9V96.73q0,10.51,7.49,10.52,7.23,0,7.23-10.52V23.5Z" transform="translate(-18.34 -19.25)"/><path class="cls-1" d="M315.83,21.61V54.32a19.33,19.33,0,0,0-5.72-1.26,8.94,8.94,0,0,0-6.64,2.85,9.56,9.56,0,0,0-2.77,6.9c0,2.3,1,5.21,3,8.74l2.61,4.54q7.07,12.28,7.06,23.72a38,38,0,0,1-11.9,28.33q-11.89,11.61-29.05,11.61A38.14,38.14,0,0,1,256.13,136V102.75q4.88,3.1,8.66,3.11a11,11,0,0,0,7.44-2.56,8.15,8.15,0,0,0,3-6.44q0-2.52-4.79-11-7.67-13.45-7.66-26.91a38.45,38.45,0,0,1,11.57-28A37.41,37.41,0,0,1,302,19.25,42.15,42.15,0,0,1,315.83,21.61Z" transform="translate(-18.34 -19.25)"/><path class="cls-1" d="M374.77,80.72V111h-9.83v27.33H330.8v-73q0-21.19,11.56-32.92t32.5-11.73q20.17,0,29.85,10.64t9.67,32.83v74.17H380.24V66.42q0-6.72-1.6-9.33t-5.72-2.61q-8,0-8,11.94v14.3Z" transform="translate(-18.34 -19.25)"/><path class="cls-2" d="M450.93,70q5.38,0,7.48-1.3c1.4-.87,2.1-2.42,2.1-4.67q0-5.72-8.82-5.71H429.91v-33h29.68q17.16,0,26.61,9.09T495.66,60v45q0,17.07-10,26.11t-28.93,9H429.91V107.35h22.95q6,0,7.91-1.14c1.29-.75,1.93-2.34,1.93-4.75q0-3.19-1.89-4.54c-1.26-.9-3.41-1.35-6.43-1.35H432.09V70Z" transform="translate(-18.34 -19.25)"/><path class="cls-1" d="M545.16,57.55v81.82H511V24.59H555.5q29.26,0,45.82,13.29Q621,53.77,621,81q0,26.07-16.82,42.55T560.88,140c-2.07,0-5.47-.11-10.17-.34V106h5.46Q586,106,586,81q0-23.46-29.34-23.46Z" transform="translate(-18.34 -19.25)"/></svg>